<?xml version="1.0" encoding="UTF-8"?>
<svg version="1.1" xmlns="http://www.w3.org/2000/svg" width="1080" height="1080">
<path d="M0 0 C356.4 0 712.8 0 1080 0 C1080 356.4 1080 712.8 1080 1080 C723.6 1080 367.2 1080 0 1080 C0 723.6 0 367.2 0 0 Z " fill="#282828" transform="translate(0,0)"/>
<path d="M0 0 C13.20557746 12.50542902 24.51424394 27.57822828 26.30859375 46.203125 C26.53129107 56.42100226 24.33760409 64.88181891 20.12109375 74.140625 C18.25956659 78.88849218 17.4514207 81.60261604 19.36328125 86.47265625 C19.99686032 87.67790542 20.64708332 88.87453172 21.3125 90.0625 C27 100.6510521 27 100.6510521 27 105 C27.66 105 28.32 105 29 105 C29.0928125 104.34515625 29.185625 103.6903125 29.28125 103.015625 C30.23039464 99.03334423 31.83069319 95.47744813 33.5 91.75 C33.98146484 90.65171875 33.98146484 90.65171875 34.47265625 89.53125 C36.85781769 84.14218231 36.85781769 84.14218231 38 83 C38.35804137 79.06154498 37.6344022 76.83165693 35.6875 73.4375 C29.58519328 61.71829733 28.00840057 49.0547468 31.6875 36.3125 C35.80107477 24.45405686 41.96476748 15.50577315 50 6 C50.86238281 4.9790625 50.86238281 4.9790625 51.7421875 3.9375 C57.5644577 -2.33727824 65.00366321 -7.13790717 72 -12 C72.83402344 -12.58007812 73.66804687 -13.16015625 74.52734375 -13.7578125 C98.43234963 -29.13431892 128.61653789 -35.4170962 156.578125 -30.74609375 C175.20228561 -26.6853464 192.9622128 -18.05485285 205 -3 C205.60199219 -2.38382812 206.20398438 -1.76765625 206.82421875 -1.1328125 C208 1 208 1 207.4765625 3.796875 C205.74812284 7.54640019 203.70149097 10.84865605 201.375 14.25 C200.97410156 14.85457031 200.57320312 15.45914063 200.16015625 16.08203125 C193.40221964 26.10386295 185.48550077 34.92580504 176.9375 43.4375 C176.4317746 43.94234924 175.92604919 44.44719849 175.40499878 44.96734619 C167.50171171 52.8256566 159.51711197 60.12999422 150 66 C149.35514648 66.39815918 148.71029297 66.79631836 148.04589844 67.20654297 C128.63267533 78.98477321 108.39949475 85.92567222 86 89 C85.10023438 89.13277344 84.20046875 89.26554687 83.2734375 89.40234375 C74.91736397 90.45044232 66.40481163 90.08240011 58 90 C57.73832031 90.67417969 57.47664062 91.34835937 57.20703125 92.04296875 C56.06814982 94.83304398 54.83911442 97.57062262 53.58911133 100.31225586 C42.13612534 125.72095182 39.42129957 151.42948985 39.25 179.0625 C39.22173245 181.40561983 39.1917908 183.74872008 39.16015625 186.09179688 C39.08759695 191.72778694 39.03522014 197.36365894 39 203 C39.79954102 203.05406006 40.59908203 203.10812012 41.42285156 203.16381836 C42.4847168 203.24253174 43.54658203 203.32124512 44.640625 203.40234375 C45.68766602 203.47702881 46.73470703 203.55171387 47.81347656 203.62866211 C68.0971772 205.99240013 89.05082147 220.46994367 101.640625 236.02734375 C104.35008898 239.55885383 106.742002 243.16140341 109 247 C109.68320312 246.7834375 110.36640625 246.566875 111.0703125 246.34375 C131.8635926 240.60033759 152.4512677 243.62812062 171.26953125 253.80078125 C186.11703818 262.2759028 199.35299458 276.57140827 204.3515625 293.171875 C207.55684856 305.04522696 208 315.53924959 208 328 C89.2 328 -29.6 328 -152 328 C-152 305.17954792 -149.80678324 286.37699349 -134 269 C-133.38511719 268.31679688 -132.77023437 267.63359375 -132.13671875 266.9296875 C-124.12586205 258.48537763 -114.61544738 252.6509599 -104 248 C-102.59234375 247.37544922 -102.59234375 247.37544922 -101.15625 246.73828125 C-86.13321036 241.10464138 -68.22780535 242.95849716 -53 247 C-52.69449219 246.48953125 -52.38898438 245.9790625 -52.07421875 245.453125 C-41.0154075 227.88363332 -25.76279245 216.31949347 -7 208 C-5.51306641 207.33291016 -5.51306641 207.33291016 -3.99609375 206.65234375 C0.97392439 204.6339521 5.47292755 203.7519243 10.83203125 203.40234375 C11.99065674 203.32363037 13.14928223 203.24491699 14.34301758 203.16381836 C15.21982178 203.1097583 16.09662598 203.05569824 17 203 C16.95747196 196.19416274 16.88436142 189.38908779 16.79248047 182.58374023 C16.76470098 180.28107621 16.7432791 177.97832445 16.72900391 175.67553711 C16.54207075 147.18069231 12.97356512 119.88069318 -0.71484375 94.51953125 C-2 92 -2 92 -2 90 C-3.07894531 90.02320313 -4.15789062 90.04640625 -5.26953125 90.0703125 C-49.80799941 90.74399517 -87.91704157 75.71730505 -120 45 C-120.84546387 44.20335937 -120.84546387 44.20335937 -121.70800781 43.390625 C-133.39009069 32.34715405 -146.72381684 18.58970992 -152 3 C-149.72885996 -6.83164569 -139.20899748 -13.84560015 -131.1875 -19.03125 C-88.91493781 -45.1407737 -35.72676598 -29.94116283 0 0 Z " fill="#FBFBFB" transform="translate(512,269)"/>
<path d="M0 0 C4.78609032 14.20563166 9.38012224 28.46957038 13.9375 42.75 C14.6216458 44.89065664 15.30589024 47.03128176 15.99023438 49.171875 C17.6718892 54.43335455 19.3514574 59.69549662 21.02978516 64.95803833 C21.66740501 66.9571988 22.30525613 68.95628552 22.94335938 70.95529175 C28.58686192 88.63626118 28.58686192 88.63626118 31.21354675 97.14559937 C32.11824271 100.07020949 33.03455113 102.99109976 33.953125 105.91137695 C34.41002444 107.37421886 34.86131925 108.83882056 35.30761719 110.30493164 C35.97444125 112.49065916 36.66093389 114.6693512 37.3515625 116.84765625 C37.93671631 118.7349646 37.93671631 118.7349646 38.53369141 120.66040039 C40.66115242 125.50581152 43.65408687 128.10272458 48 131 C48.061875 130.443125 48.12375 129.88625 48.1875 129.3125 C50.39922207 123.01759872 57.89384546 118.86020833 63 115 C60.57162849 112.01657215 58.26197747 109.24280839 55.4375 106.625 C48.68150291 99.34931083 47.36690688 90.82032782 47.60546875 81.21875 C48.15645545 72.5742944 52.5010053 66.06783575 58.5625 60.125 C71.46312159 49.35816863 84.95205177 48.02297957 101 49 C104.68953688 49.47962323 108.25838971 50.30965662 111.859375 51.24609375 C121.10782804 53.4661826 130.60160018 53.33011397 140.06054688 53.60546875 C141.19427734 53.64285156 142.32800781 53.68023438 143.49609375 53.71875 C144.52919678 53.74904297 145.5622998 53.77933594 146.62670898 53.81054688 C149 54 149 54 150 55 C150.35941655 60.39124832 150.37350926 63.54696778 147 68 C145.22702739 69.77297261 142.59451956 69.33700956 140.1875 69.5 C136.67225879 69.73977285 133.38942581 70.01517894 130 71 C130.04640625 72.09957031 130.0928125 73.19914063 130.140625 74.33203125 C130.54635291 87.94474272 128.50357387 97.68761134 119 108 C112.15496291 115.24966983 102.18376234 120.78741363 92.13671875 121.1328125 C90.65364591 121.13545848 89.17055526 121.13269087 87.6875 121.125 C86.95337891 121.12886719 86.21925781 121.13273438 85.46289062 121.13671875 C80.87466297 121.12857638 76.52631661 120.75338955 72 120 C71.67 121.65 71.34 123.3 71 125 C73.73661844 126.50748322 75.95166538 127.29447022 79.05566406 127.60668945 C79.84459045 127.69050369 80.63351685 127.77431793 81.4463501 127.860672 C82.71814117 127.98571358 82.71814117 127.98571358 84.015625 128.11328125 C85.84380055 128.31138298 87.67192388 128.50996721 89.5 128.70898438 C92.35552416 129.01121671 95.21134626 129.30860583 98.06835938 129.59643555 C131.5319567 133.00660795 131.5319567 133.00660795 141 142 C145.15577276 147.64136443 144.69300859 153.25891641 144 160 C140.31794901 175.25421125 127.8166853 186.94849257 115 195 C105.4197192 200.66107502 95.8666732 202.54360241 84.8125 202.4375 C83.16809937 202.42722778 83.16809937 202.42722778 81.49047852 202.41674805 C69.25672343 202.17587992 56.61626202 200.41996661 47.484375 191.5234375 C42.57744898 186.02429627 41.49434764 180.93654212 41.71484375 173.765625 C42.24038636 168.66858164 43.49476709 165.16046077 47.46533203 161.73632812 C49.78973792 159.89073244 52.14430947 158.10997137 54.57885742 156.41186523 C56.09968977 155.33840008 57.55601415 154.17480352 59 153 C59 149.37506568 58.44204644 148.86711376 55.94458008 146.36450195 C49.96798509 141.39192325 43.29769877 142.05645206 35.88671875 142.16796875 C34.4255897 142.16365556 32.9644671 142.15597499 31.50337219 142.14509583 C27.67860541 142.12427475 23.85512939 142.14314057 20.03045654 142.17236328 C13.8927393 142.21201613 7.75489394 142.18882919 1.617136 142.16936684 C-0.52297842 142.16798668 -2.66252931 142.18236375 -4.80256653 142.19950867 C-6.09788803 142.20223282 -7.39320953 142.20495697 -8.7277832 142.20776367 C-9.86947464 142.21555344 -11.01116608 142.2233432 -12.18745422 142.23136902 C-15 142 -15 142 -18 140 C-17.828125 137.63671875 -17.828125 137.63671875 -17 135 C-14.671875 133.70703125 -14.671875 133.70703125 -11.75 132.8125 C-10.79609375 132.50957031 -9.8421875 132.20664062 -8.859375 131.89453125 C-7.91578125 131.59933594 -6.9721875 131.30414062 -6 131 C-2.2333648 129.89644972 -2.2333648 129.89644972 0 127 C0.48153483 120.2432255 -0.96112177 114.68114381 -2.9375 108.25 C-3.48858063 106.40113087 -4.03937309 104.55217583 -4.58984375 102.703125 C-4.83597412 101.89520508 -5.08210449 101.08728516 -5.33569336 100.25488281 C-5.94540286 98.18532128 -6.47672802 96.09308792 -7 94 C-20.2 94 -33.4 94 -47 94 C-48.32 97.568125 -49.64 101.13625 -51 104.8125 C-51.41765625 105.91311768 -51.8353125 107.01373535 -52.265625 108.14770508 C-54.61091745 114.69207147 -56.18869399 121.02494906 -55 128 C-51.39393309 131.69853017 -46.82595933 132.88024985 -41.953125 134.2890625 C-40 135 -40 135 -38 137 C-38 138.32 -38 139.64 -38 141 C-41.07871389 142.53935694 -44.34322334 142.24089483 -47.7265625 142.31640625 C-48.50703949 142.33718735 -49.28751648 142.35796844 -50.09164429 142.37937927 C-51.75439902 142.42270849 -53.41721489 142.46374224 -55.08007812 142.50268555 C-57.56656642 142.56112661 -60.05278635 142.62655871 -62.5390625 142.69335938 C-66.57173123 142.79833112 -70.60443543 142.88491696 -74.63781738 142.95733643 C-76.21265496 142.9857797 -77.78744768 143.0168265 -79.36218262 143.05047607 C-81.58259388 143.09530623 -83.80273888 143.12603261 -86.0234375 143.15234375 C-87.93648682 143.18122681 -87.93648682 143.18122681 -89.88818359 143.21069336 C-93 143 -93 143 -96 141 C-96.1875 138.375 -96.1875 138.375 -96 136 C-95.18208984 135.67128906 -95.18208984 135.67128906 -94.34765625 135.3359375 C-78.43854694 128.64595307 -74.10728813 119.73031783 -67.625 104.375 C-67.32474915 103.66712341 -67.02449829 102.95924683 -66.71514893 102.22991943 C-58.44877613 82.70056611 -50.98513657 62.84210496 -43.79296875 42.89453125 C-42.05158521 38.08161645 -40.13964238 33.36199491 -38.11987305 28.65844727 C-36.40297452 24.51010587 -35.74211707 20.87687636 -35.3125 16.4375 C-34.68359375 13.51953125 -34.68359375 13.51953125 -33 11 C-28.54912672 8.58807425 -23.58128422 7.53745496 -18.703125 6.31640625 C-13.96162982 5.10864931 -10.52572708 3.17609596 -6.7890625 0.00390625 C-4.27753329 -1.40540162 -2.72420867 -0.64192404 0 0 Z " fill="#FAFAFA" transform="translate(245,701)"/>
<path d="M0 0 C11.274286 9.07973702 19.0084062 20.79552151 24.62890625 34.1171875 C24.62890625 34.7771875 24.62890625 35.4371875 24.62890625 36.1171875 C28.15963808 34.60917672 31.68478233 33.09261181 35.19921875 31.546875 C36.37226562 31.03382813 37.5453125 30.52078125 38.75390625 29.9921875 C39.93210937 29.47398437 41.1103125 28.95578125 42.32421875 28.421875 C54.52061578 23.60674898 69.65610725 25.34933651 81.53125 30.3359375 C94.15348648 36.70901623 104.32633397 46.98169266 109.62890625 60.1171875 C110.28890625 62.7571875 110.94890625 65.3971875 111.62890625 68.1171875 C7.34890625 68.1171875 -96.93109375 68.1171875 -204.37109375 68.1171875 C-200.3199743 53.26308284 -193.52187455 42.17224775 -180.62109375 33.3046875 C-167.07363911 25.7483383 -152.98508099 23.48191821 -137.96826172 27.61303711 C-130.6403072 29.87895249 -123.89972121 33.09212269 -117.37109375 37.1171875 C-117.28601563 36.45847656 -117.2009375 35.79976562 -117.11328125 35.12109375 C-113.0734367 18.7703545 -100.07181645 4.24443154 -86.37109375 -4.8828125 C-57.83661339 -21.60518547 -26.4121924 -19.91246369 0 0 Z " fill="#282828" transform="translate(586.37109375,507.8828125)"/>
<path d="M0 0 C0 44.55 0 89.1 0 135 C4.62 135 9.24 135 14 135 C13.25 141.75 13.25 141.75 11 144 C8.11964731 144.51371239 5.273672 144.93836842 2.375 145.3125 C-4.99061645 146.34247952 -11.84222575 147.92086937 -18.83447266 150.4621582 C-22.61205626 151.7871614 -25.15735317 152.27615577 -29 151 C-30.66342837 149.33657163 -30.36048097 147.2174291 -30.5625 144.9375 C-30.64628906 144.01839844 -30.73007812 143.09929687 -30.81640625 142.15234375 C-30.87699219 141.44207031 -30.93757812 140.73179687 -31 140 C-31.4125 140.38671875 -31.825 140.7734375 -32.25 141.171875 C-42.01636282 149.97904147 -51.20381061 151.5899871 -64.04052734 151.13183594 C-73.12676134 150.52050198 -81.21568328 144.16996854 -87.25 137.75 C-95.08497303 128.46352798 -98.40264802 118.14945848 -98.3125 106.125 C-98.30686035 105.33343506 -98.3012207 104.54187012 -98.29541016 103.72631836 C-98.17093627 97.72261003 -97.48319426 92.52345491 -95 87 C-94.60941406 86.11183594 -94.21882812 85.22367188 -93.81640625 84.30859375 C-88.21492443 72.89934324 -79.5620507 65.09941974 -68 60 C-67.26910156 59.66097656 -66.53820312 59.32195313 -65.78515625 58.97265625 C-59.92275634 56.73690795 -54.00916793 56.72676557 -47.8125 56.6875 C-46.5287146 56.67904053 -46.5287146 56.67904053 -45.21899414 56.67041016 C-40.11829681 56.7289078 -35.91689411 57.49508816 -31 59 C-31.09382536 54.3914965 -31.19998247 49.78350043 -31.31738281 45.17553711 C-31.35557409 43.60920919 -31.39044394 42.04279651 -31.421875 40.47631836 C-31.46774071 38.219582 -31.52569769 35.96342417 -31.5859375 33.70703125 C-31.59748871 33.01100296 -31.60903992 32.31497467 -31.62094116 31.59785461 C-31.7392849 27.66506971 -32.18161864 24.5120362 -34 21 C-35.68046157 19.78473015 -35.68046157 19.78473015 -37.625 19.1875 C-38.73875 18.795625 -39.8525 18.40375 -41 18 C-41 16.02 -41 14.04 -41 12 C-40.15816162 11.74307373 -39.31632324 11.48614746 -38.44897461 11.22143555 C-35.29647471 10.25726145 -32.14509455 9.28958066 -28.99438477 8.31958008 C-27.63608685 7.90217553 -26.27736963 7.4861327 -24.91821289 7.0715332 C-22.95344349 6.47192859 -20.99028419 5.86728038 -19.02734375 5.26171875 C-17.84906006 4.90037842 -16.67077637 4.53903809 -15.45678711 4.16674805 C-11.92533997 3.03853541 -11.92533997 3.03853541 -8.37329102 1.35864258 C-5 0 -5 0 0 0 Z " fill="#FBFBFB" transform="translate(914,694)"/>
<path d="M0 0 C1.70830767 1.32782096 3.3964721 2.68200203 5.0625 4.0625 C5.92359375 4.77277344 6.7846875 5.48304688 7.671875 6.21484375 C16.98503405 14.24391572 26.70788291 24.51263363 29.0625 37.0625 C29.34193804 42.11704098 29.37446159 47.14264404 28.0625 52.0625 C24.86886047 50.68390072 23.06888231 49.18141172 20.875 46.5 C5.70746676 28.70300011 -16.54301823 11.78607344 -38.9375 4.0625 C-39.9275 4.0625 -40.9175 4.0625 -41.9375 4.0625 C-42.91988408 6.47790306 -43.89850218 8.89471822 -44.875 11.3125 C-45.29168945 12.33537109 -45.29168945 12.33537109 -45.71679688 13.37890625 C-47.00725756 16.58173638 -48.15550044 19.70087534 -48.9375 23.0625 C-48.26847656 23.15402344 -47.59945312 23.24554688 -46.91015625 23.33984375 C-43.12842068 24.25918814 -39.82536251 25.87384828 -36.375 27.625 C-35.66972168 27.98142578 -34.96444336 28.33785156 -34.23779297 28.70507812 C-23.93924671 34.01413618 -14.8490017 40.69735906 -5.9375 48.0625 C-5.35097656 48.51367188 -4.76445312 48.96484375 -4.16015625 49.4296875 C-1.37047982 51.60180198 0.72472692 53.83557952 2.73046875 56.71484375 C3.17028076 57.34253662 3.61009277 57.97022949 4.06323242 58.61694336 C4.39299072 59.09397705 4.72274902 59.57101074 5.0625 60.0625 C-30.78555094 59.59137866 -60.94079505 43.12942042 -85.9375 18.0625 C-89.08669793 14.5047036 -92.02752818 10.81695533 -94.9375 7.0625 C-96.45610423 5.16488064 -97.97683132 3.26895756 -99.5 1.375 C-100.64646699 -0.06199468 -101.7925516 -1.49929506 -102.9375 -2.9375 C-94.85465129 -11.73043075 -83.45534697 -15.78617801 -71.9375 -17.9375 C-70.49697266 -18.21207031 -70.49697266 -18.21207031 -69.02734375 -18.4921875 C-45.63137942 -21.86404582 -19.1450048 -13.56668657 0 0 Z " fill="#2A2A2A" transform="translate(487.9375,276.9375)"/>
<path d="M0 0 C0.76570313 0.75603516 0.76570313 0.75603516 1.546875 1.52734375 C1.546875 6.39218235 -0.1398851 8.03217826 -3.203125 11.46484375 C-3.69756104 12.03114502 -4.19199707 12.59744629 -4.70141602 13.1809082 C-6.27462897 14.97282225 -7.8633005 16.75016619 -9.453125 18.52734375 C-9.94989746 19.09259766 -10.44666992 19.65785156 -10.95849609 20.24023438 C-17.89743703 28.13238964 -25.11171686 35.0915651 -33.453125 41.52734375 C-34.26136719 42.15125 -35.06960938 42.77515625 -35.90234375 43.41796875 C-56.10971737 58.24784295 -79.53726158 65.85666102 -104.453125 66.52734375 C-99.88075887 59.44692868 -94.13067832 54.58584205 -87.453125 49.52734375 C-86.91623047 49.11693848 -86.37933594 48.7065332 -85.82617188 48.28369141 C-75.12880833 40.16057645 -63.8554007 33.7068382 -51.453125 28.52734375 C-52.13728934 24.35158207 -53.46677509 20.64653968 -55.015625 16.71484375 C-55.47066406 15.55339844 -55.92570313 14.39195312 -56.39453125 13.1953125 C-56.91853516 11.87466797 -56.91853516 11.87466797 -57.453125 10.52734375 C-63.15906318 11.04772531 -67.43514949 13.29262148 -72.390625 15.96484375 C-73.22746826 16.4129541 -74.06431152 16.86106445 -74.92651367 17.32275391 C-93.12610593 27.22524401 -113.76425831 40.99404371 -125.453125 58.52734375 C-126.113125 58.52734375 -126.773125 58.52734375 -127.453125 58.52734375 C-130.10139623 48.59632662 -128.22278853 40.46467444 -123.453125 31.52734375 C-109.3173035 8.78710917 -85.25108857 -4.38853714 -59.90625 -11.15234375 C-39.10559968 -15.75369973 -17.81834617 -11.40500526 0 0 Z " fill="#2A2A2A" transform="translate(691.453125,270.47265625)"/>
<path d="M0 0 C0.71542969 0.4125 1.43085937 0.825 2.16796875 1.25 C8.18705345 5.22508033 12.42584914 11.10477475 14.640625 17.9921875 C15.06209222 20.34690653 15.24322101 22.60805155 15.3125 25 C15.36857422 26.2684375 15.36857422 26.2684375 15.42578125 27.5625 C14.8149291 31.05948843 13.9106776 31.92502681 11 34 C7.47098173 34.59654131 3.97016191 34.53309845 0.3984375 34.50390625 C-0.63437347 34.51332748 -1.66718445 34.52274872 -2.73129272 34.53245544 C-6.02939721 34.56114234 -9.32678066 34.56418129 -12.625 34.5625 C-15.93025489 34.56609893 -19.23498609 34.57552142 -22.54013062 34.60325623 C-24.59672358 34.62014253 -26.65348983 34.62284457 -28.71011353 34.61024475 C-29.63802704 34.61712814 -30.56594055 34.62401154 -31.52197266 34.63110352 C-32.74963852 34.62966087 -32.74963852 34.62966087 -34.00210571 34.62818909 C-34.66141083 34.75088669 -35.32071594 34.87358429 -36 35 C-38.81895614 39.22843421 -38.49078236 42.467728 -37.53515625 47.3984375 C-35.73184027 54.33426818 -33.0466723 60.40485146 -26.84375 64.3828125 C-19.88608023 67.61315918 -11.50012721 68.98263748 -4.13476562 66.32763672 C0.06241446 64.49110083 4.0015284 62.23147026 8 60 C9.65379976 59.30202537 11.31615954 58.62201569 13 58 C14 59 14 59 14.0546875 60.75 C13.35969245 69.45254669 9.55710147 76.37183437 3.23046875 82.36328125 C-7.68940856 90.37629105 -19.8361163 92.36841834 -33 91 C-44.41450605 88.16227999 -52.04337716 81.27769711 -58.4609375 71.6953125 C-65.34899439 59.63247175 -66.73320764 45.85631334 -64.3515625 32.3125 C-60.67462112 19.23893064 -53.04312948 8.52035814 -41.3828125 1.40234375 C-28.83017945 -5.14105007 -12.70441723 -7.43220021 0 0 Z " fill="#FAFAFA" transform="translate(792,754)"/>
<path d="M0 0 C0.495 9.405 0.495 9.405 1 19 C1.969375 17.824375 2.93875 16.64875 3.9375 15.4375 C9.54804029 9.03033128 16.12446868 2.68007496 24.90234375 1.6640625 C31.23214869 1.58259783 35.30091537 1.54823561 40 6 C42.25314416 8.74295811 41.99397839 10.18365925 41.875 13.8125 C40.95162341 19.52257592 38.36604109 23.9126794 34.3125 28 C30.42859693 30.34499808 28.70930976 30.40569796 24.36328125 29.66796875 C21.87281607 28.96405214 19.70118595 28.00440885 17.375 26.875 C13.18872305 24.88396584 10.54089646 24.51547616 6 26 C2.04239864 29.09725324 0.63380138 31.10413743 0 36 C-0.17046037 39.32395326 -0.21167897 42.64476039 -0.23828125 45.97265625 C-0.246353 46.93272079 -0.25442474 47.89278534 -0.26274109 48.88194275 C-0.27653839 50.90670995 -0.28727991 52.93149998 -0.29516602 54.95629883 C-0.30673238 57.02895916 -0.32725677 59.10158865 -0.35668945 61.17407227 C-0.3992219 64.16963935 -0.41551062 67.16432533 -0.42578125 70.16015625 C-0.44328934 71.08627213 -0.46079742 72.012388 -0.47883606 72.96656799 C-0.51783536 78.11632151 -0.51783536 78.11632151 1.88134766 82.53808594 C4.09560204 84.06596739 6.19462907 85.17799028 8.6875 86.1875 C12.93055556 87.93055556 12.93055556 87.93055556 14 89 C14.04063832 90.66617115 14.042721 92.33388095 14 94 C8.59642242 94.14512465 3.19277918 94.28739638 -2.2109375 94.42724609 C-4.0416863 94.47500197 -5.87241641 94.52348086 -7.703125 94.57275391 C-12.96864082 94.71420691 -18.23412504 94.84029265 -23.50048828 94.94580078 C-25.14482713 94.9814565 -26.78905693 95.02264402 -28.43310547 95.06982422 C-30.66368783 95.1334755 -32.89389203 95.17842567 -35.125 95.21875 C-37.01605469 95.26418945 -37.01605469 95.26418945 -38.9453125 95.31054688 C-42 95 -42 95 -43.93188477 93.61425781 C-45 92 -45 92 -44.96484375 89.953125 C-43.64882726 87.28912401 -42.2868515 86.84845852 -39.5625 85.75 C-38.35787109 85.24726562 -38.35787109 85.24726562 -37.12890625 84.734375 C-35 84 -35 84 -33 84 C-32.97681836 76.376446 -32.9590552 68.75289566 -32.94818783 61.12931442 C-32.94297175 57.58928939 -32.93589724 54.04928849 -32.92456055 50.50927734 C-32.91160577 46.43847422 -32.90676124 42.36769641 -32.90234375 38.296875 C-32.89718246 37.02696716 -32.89202118 35.75705933 -32.88670349 34.44866943 C-32.88662796 33.26774719 -32.88655243 32.08682495 -32.88647461 30.87011719 C-32.88314369 29.31124786 -32.88314369 29.31124786 -32.87974548 27.72088623 C-32.98827741 25.26523599 -33.0877702 23.28119491 -34 21 C-36.99615946 19.6954344 -36.99615946 19.6954344 -40 19 C-40.6875 16.6875 -40.6875 16.6875 -41 14 C-38.71212736 10.84765431 -35.94701558 10.14588039 -32.30078125 9.09765625 C-31.17349609 8.76443359 -30.04621094 8.43121094 -28.88476562 8.08789062 C-27.70591797 7.74951172 -26.52707031 7.41113281 -25.3125 7.0625 C-16.11855047 4.5114577 -16.11855047 4.5114577 -7.41796875 0.68359375 C-4 -1 -4 -1 0 0 Z " fill="#FBFBFB" transform="translate(684,748)"/>
<path d="M0 0 C0.33 6.6 0.66 13.2 1 20 C2.155 18.63875 3.31 17.2775 4.5 15.875 C10.06088004 9.62516138 16.22847351 3.59812589 24.90234375 2.69921875 C35.46502058 2.65843621 35.46502058 2.65843621 40 6 C42.33317917 8.86344717 42.47808614 12.13652957 42.3828125 15.77734375 C41.44645673 21.21393999 38.30678292 25.59005001 34.625 29.5625 C30.97943052 31.55888329 29.14308868 31.6014161 25 31 C23.1696863 30.18470331 21.35811459 29.32661483 19.5625 28.4375 C14.33443512 25.92745513 11.56420084 25.17724455 6 27 C2.68078264 29.71497081 0.77410092 32.78393798 0 37 C-0.08756488 38.40801415 -0.12784035 39.81949109 -0.12939453 41.23022461 C-0.13412277 42.46687111 -0.13412277 42.46687111 -0.13894653 43.72850037 C-0.1369223 44.61086868 -0.13489807 45.493237 -0.1328125 46.40234375 C-0.13376923 47.31705948 -0.13472595 48.23177521 -0.13571167 49.17420959 C-0.13639143 51.10661895 -0.13455135 53.0390306 -0.13037109 54.97143555 C-0.12502614 57.92306677 -0.13031983 60.87454541 -0.13671875 63.82617188 C-0.13605781 65.7057295 -0.13477633 67.58528703 -0.1328125 69.46484375 C-0.13483673 70.34518784 -0.13686096 71.22553192 -0.13894653 72.1325531 C-0.12338253 76.2188007 -0.02924337 80.01436492 1 84 C1.59167969 84.18175781 2.18335938 84.36351562 2.79296875 84.55078125 C7.212508 85.95667057 11.12540125 87.37527181 15 90 C14.67 91.65 14.34 93.3 14 95 C8.91789236 95.14566797 3.83570257 95.28788854 -1.24658203 95.42724609 C-2.96665902 95.47485736 -4.68671254 95.52332597 -6.40673828 95.57275391 C-15.64803305 95.83771789 -24.88749861 96.05218806 -34.1328125 96.09375 C-34.89673309 96.1002356 -35.66065369 96.10672119 -36.44772339 96.11340332 C-41.76404005 96.11797997 -41.76404005 96.11797997 -44 95 C-44.3125 92.6875 -44.3125 92.6875 -44 90 C-41.53093829 88.09529525 -39.1516142 87.05857821 -36.25 85.9375 C-33.83767007 85.22002336 -33.83767007 85.22002336 -33 83 C-32.89376446 81.16773709 -32.85119067 79.33163664 -32.83886719 77.49633789 C-32.82925964 76.34496841 -32.8196521 75.19359894 -32.80975342 74.00733948 C-32.80550354 72.75839401 -32.80125366 71.50944855 -32.796875 70.22265625 C-32.78832489 68.30651772 -32.78832489 68.30651772 -32.77960205 66.35166931 C-32.77014205 63.64562412 -32.76325016 60.93969012 -32.75976562 58.23364258 C-32.75427716 54.76544098 -32.73024112 51.29763125 -32.70179367 47.82955265 C-32.67869835 44.52311671 -32.67671991 41.21666158 -32.671875 37.91015625 C-32.6533548 36.0397744 -32.6533548 36.0397744 -32.63446045 34.13160706 C-32.63746155 32.97708542 -32.64046265 31.82256378 -32.64355469 30.63305664 C-32.63808624 29.10655235 -32.63808624 29.10655235 -32.63250732 27.54920959 C-33.05799316 24.59771522 -33.66852397 23.78188108 -36 22 C-36.721875 21.54625 -37.44375 21.0925 -38.1875 20.625 C-40 19 -40 19 -40.375 16.4375 C-40 14 -40 14 -38 12 C-35.9597168 11.31738281 -35.9597168 11.31738281 -33.44921875 10.703125 C-32.52858643 10.46932129 -31.6079541 10.23551758 -30.65942383 9.99462891 C-29.67868896 9.74890137 -28.6979541 9.50317383 -27.6875 9.25 C-19.77740505 7.20011414 -12.63847797 4.85961114 -5.36328125 1.1015625 C-3 0 -3 0 0 0 Z " fill="#FAFAFA" transform="translate(442,747)"/>
<path d="M0 0 C6.77922781 4.9771546 6.77922781 4.9771546 8.1015625 9.18359375 C8.16061164 12.64932406 7.70133695 13.52658243 5.33984375 15.9765625 C4.52580078 16.85248047 4.52580078 16.85248047 3.6953125 17.74609375 C1.54051459 19.72632575 0.3277107 20.14322682 -2.609375 20.4921875 C-6.78040656 20.0695498 -8.45610492 18.57338221 -11.66015625 15.9140625 C-18.4726094 10.5099175 -24.83708314 6.23644444 -33.83984375 6.72265625 C-37.4031147 7.50602126 -38.78412805 9.25084622 -40.84765625 12.1640625 C-43.5913152 18.26404211 -44.33374478 23.26151953 -44.22265625 29.9140625 C-44.21250488 30.79223633 -44.20235352 31.67041016 -44.19189453 32.57519531 C-43.96578273 42.0929247 -42.95727604 51.06158684 -36.5546875 58.5390625 C-31.49638356 63.35429005 -26.91954192 64.42295584 -19.97265625 64.6640625 C-11.74502179 64.40887384 -5.51585208 62.3039179 1.02734375 57.3515625 C4.15234375 55.1640625 4.15234375 55.1640625 6.34765625 55.52734375 C6.94320312 55.73746094 7.53875 55.94757812 8.15234375 56.1640625 C9.06809551 63.184826 6.36554004 67.65320175 2.15234375 73.1640625 C-4.92099862 80.96480533 -15.19961924 88.68200441 -26.0703125 89.3671875 C-39.90333949 89.53605456 -48.34800742 87.19041302 -58.53125 77.57421875 C-67.33633406 68.22024634 -71.25472817 55.90360594 -71.16015625 43.2890625 C-71.1545166 42.49749756 -71.14887695 41.70593262 -71.14306641 40.89038086 C-70.87742717 28.07789022 -65.65481581 16.41602704 -56.8828125 7.0078125 C-41.47159802 -6.95397873 -18.05896899 -11.64295669 0 0 Z " fill="#FAFAFA" transform="translate(623.84765625,755.8359375)"/>
<path d="M0 0 C0.495 0.495 0.495 0.495 1 1 C0.93444486 3.16927914 0.7960474 5.33648152 0.625 7.5 C0.48964844 9.27890625 0.48964844 9.27890625 0.3515625 11.09375 C0.1168197 13.70200335 -0.17042558 16.30605149 -0.50927734 18.90283203 C-1.19707925 25.0796122 -1.18136811 31.25202576 -1.203125 37.4609375 C-1.21167511 39.36221909 -1.21167511 39.36221909 -1.22039795 41.3019104 C-1.22980189 43.96612125 -1.2367243 46.63022067 -1.24023438 49.29443359 C-1.24576145 52.70750455 -1.26991222 56.12018507 -1.29820633 59.53313255 C-1.32126557 62.80070453 -1.32327404 66.06829552 -1.328125 69.3359375 C-1.3404718 70.56089935 -1.3528186 71.78586121 -1.36553955 73.04794312 C-1.36253845 74.17987091 -1.35953735 75.31179871 -1.35644531 76.47802734 C-1.36009094 77.47458344 -1.36373657 78.47113953 -1.36749268 79.49789429 C-0.93823893 82.42050557 -0.31689378 83.23823054 2 85 C3.69984012 85.95030432 5.432191 86.84403983 7.1875 87.6875 C8.08855469 88.12449219 8.98960937 88.56148437 9.91796875 89.01171875 C10.60503906 89.33785156 11.29210937 89.66398438 12 90 C11.67 91.65 11.34 93.3 11 95 C3.22237771 95.1934118 -4.55549012 95.37086408 -12.33374023 95.53710938 C-14.98095991 95.59558634 -17.62810086 95.65774615 -20.27514648 95.72363281 C-24.07521228 95.81758462 -27.87536239 95.89838238 -31.67578125 95.9765625 C-32.86335526 96.00875885 -34.05092926 96.0409552 -35.27449036 96.0741272 C-36.9258625 96.10438492 -36.9258625 96.10438492 -38.6105957 96.13525391 C-40.06620659 96.16856308 -40.06620659 96.16856308 -41.55122375 96.20254517 C-44 96 -44 96 -47 94 C-46.80859375 91.64453125 -46.80859375 91.64453125 -46 89 C-43.78515625 87.63671875 -43.78515625 87.63671875 -41.0625 86.6875 C-40.16660156 86.36136719 -39.27070313 86.03523437 -38.34765625 85.69921875 C-36 85 -36 85 -34 85 C-33.93044803 77.63726948 -33.87716255 70.27460995 -33.84456348 62.91161728 C-33.82891642 59.49255508 -33.8076963 56.07371787 -33.77368164 52.65478516 C-33.73481015 48.72300929 -33.72028279 44.7913241 -33.70703125 40.859375 C-33.69154739 39.63321472 -33.67606354 38.40705444 -33.66011047 37.14373779 C-33.65988388 36.00285706 -33.65965729 34.86197632 -33.65942383 33.68652344 C-33.65276199 32.68280701 -33.64610016 31.67909058 -33.63923645 30.6449585 C-34.05733118 27.5796732 -34.91093565 26.24291072 -37 24 C-38.78413421 22.91167683 -38.78413421 22.91167683 -40.6875 22.25 C-41.780625 21.8375 -42.87375 21.425 -44 21 C-44.125 18.125 -44.125 18.125 -44 15 C-41.37734947 12.37734947 -39.36741478 12.26217496 -35.75 11.4375 C-27.64948512 9.47484703 -20.12994625 6.32311453 -12.50292969 2.99780273 C-11.60219727 2.61180908 -10.70146484 2.22581543 -9.7734375 1.828125 C-8.97341309 1.4765332 -8.17338867 1.12494141 -7.34912109 0.76269531 C-4.75396469 -0.07988093 -2.71197139 -0.21171741 0 0 Z " fill="#FBFBFB" transform="translate(535,747)"/>
<path d="M0 0 C3.86573017 2.55791155 7.07112278 5.3732458 9.375 9.4375 C10.17626979 13.47306337 10.07624847 17.3952793 9.9609375 21.49609375 C9.95244781 22.64038345 9.94395813 23.78467316 9.93521118 24.96363831 C9.90174934 28.60173536 9.82647604 32.23757814 9.75 35.875 C9.71989141 38.34827518 9.69251718 40.82158526 9.66796875 43.29492188 C9.60198149 49.343211 9.50170281 55.39019442 9.375 61.4375 C8.09432484 62.09094981 6.81213065 62.74142315 5.52929688 63.390625 C4.81543823 63.75317383 4.10157959 64.11572266 3.36608887 64.48925781 C-0.93078988 66.53561635 -5.1837457 67.10489326 -9.796875 65.84375 C-15.80438567 63.22393331 -19.07301286 59.16486661 -21.55859375 53.1953125 C-26.51800242 39.10015102 -26.95457825 20.68272695 -20.48828125 7.0390625 C-15.70118109 -1.32703683 -8.99881674 -3.87880032 0 0 Z " fill="#292929" transform="translate(873.625,763.5625)"/>
<path d="M0 0 C3 1.1875 3 1.1875 5 3 C6.87366958 8.40057702 5.65533504 12.51937791 3.43359375 17.5625 C0.54045255 22.48162836 -3.44040567 25.87165812 -8.640625 28.1640625 C-13.09521933 29.27253132 -17.30094124 29.36820348 -21.875 29.375 C-22.73480469 29.39949219 -23.59460938 29.42398438 -24.48046875 29.44921875 C-31.50830215 29.48121192 -36.77996309 27.89620018 -42.05859375 23.1484375 C-42.51363281 22.56320312 -42.96867187 21.97796875 -43.4375 21.375 C-43.91058594 20.78460937 -44.38367188 20.19421875 -44.87109375 19.5859375 C-48.16676611 14.956031 -47.85679603 9.44677475 -47 4 C-38.33481036 -10.72174889 -14.15412717 -3.94459282 0 0 Z " fill="#292929" transform="translate(355,862)"/>
<path d="M0 0 C5.21372169 3.34465165 7.97727038 7.13079214 9.55859375 13.11328125 C11.18698772 23.76268958 11.86591491 37.5940163 5.7578125 46.890625 C3.16201049 50.1776169 1.40917165 51.80784023 -2.75 52.375 C-7.00202304 51.88438196 -9.35474941 50.23391199 -12 47 C-17.79661764 36.65809804 -18.61140611 24.55712211 -16.43359375 12.9921875 C-13.69763113 4.54078465 -9.93014358 -1.82428774 0 0 Z " fill="#292929" transform="translate(338,760)"/>
<path d="M0 0 C4.34348534 3.10248953 7.52897955 6.9190761 9.625 11.875 C10.46252853 17.75945371 9.61559405 22.69130365 6.625 27.875 C3.1324337 31.56322828 -0.82500027 34.53916543 -5.92578125 35.2109375 C-13.29795895 35.31521158 -17.30717671 34.49774338 -22.91015625 29.5078125 C-27.04141932 24.88171848 -27.05353233 19.96936379 -26.78515625 13.96875 C-26.09717823 8.77943008 -24.64903516 5.96711235 -20.71484375 2.34765625 C-14.37232712 -2.35388071 -7.33595313 -2.44531771 0 0 Z " fill="#FAFAFA" transform="translate(525.375,704.125)"/>
<path d="M0 0 C2 1 2 1 3.09741211 4.06005859 C3.4988645 5.42047538 3.89153092 6.78350295 4.27734375 8.1484375 C4.48935928 8.87559967 4.70137482 9.60276184 4.91981506 10.35195923 C5.59973813 12.69091208 6.26862803 15.03286578 6.9375 17.375 C7.38406704 18.91556726 7.83132492 20.45593443 8.27929688 21.99609375 C9.34597592 25.67213241 10.39722449 29.3523231 11.44061279 33.03503418 C11.94837454 34.81865467 12.46606113 36.59944231 12.98486328 38.37988281 C13.25927246 39.33991211 13.53368164 40.29994141 13.81640625 41.2890625 C14.0491626 42.0929541 14.28191895 42.8968457 14.52172852 43.72509766 C15 46 15 46 15 51 C4.44 51 -6.12 51 -17 51 C-15.75986496 45.41939234 -14.6725103 40.66465959 -12.7578125 35.41796875 C-12.33113281 34.23783203 -11.90445313 33.05769531 -11.46484375 31.84179688 C-11.02269531 30.63587891 -10.58054688 29.42996094 -10.125 28.1875 C-9.25135047 25.78561189 -8.37894299 23.38327162 -7.5078125 20.98046875 C-7.08661133 19.81950684 -6.66541016 18.65854492 -6.23144531 17.46240234 C-4.68150094 13.10448975 -3.22445897 8.71943737 -1.79248047 4.3215332 C-1 2 -1 2 0 0 Z " fill="#2A2A2A" transform="translate(219,730)"/>
<path d="M0 0 C2.81992717 1.82120296 4.50345478 3.00690956 6 6 C6.12082534 7.66345582 6.1753794 9.33220591 6.1875 11 C6.20167969 11.886875 6.21585938 12.77375 6.23046875 13.6875 C6 16 6 16 4 18 C1.47802734 18.22705078 1.47802734 18.22705078 -1.6640625 18.1953125 C-2.78554688 18.18886719 -3.90703125 18.18242188 -5.0625 18.17578125 C-6.238125 18.15902344 -7.41375 18.14226563 -8.625 18.125 C-10.40003906 18.11146484 -10.40003906 18.11146484 -12.2109375 18.09765625 C-15.14082523 18.07402812 -18.0703134 18.04108514 -21 18 C-21.28227095 11.58169625 -20.89569745 8.67238183 -16.69921875 3.703125 C-11.67006952 -1.33758549 -6.6275526 -1.83081564 0 0 Z " fill="#2A2A2A" transform="translate(777,760)"/>
<path d="M0 0 C0.33 0 0.66 0 1 0 C1 3.63 1 7.26 1 11 C-3.62 11.33 -8.24 11.66 -13 12 C-13 11.01 -13 10.02 -13 9 C-12.39671875 8.68546875 -11.7934375 8.3709375 -11.171875 8.046875 C-6.87633776 5.74668409 -3.27643068 3.68598452 0 0 Z " fill="#323232" transform="translate(883,833)"/>
<path d="M0 0 C0.99 0.33 1.98 0.66 3 1 C2.67 2.32 2.34 3.64 2 5 C2.639375 5.103125 3.27875 5.20625 3.9375 5.3125 C4.618125 5.539375 5.29875 5.76625 6 6 C6.33 6.99 6.66 7.98 7 9 C-0.92 9.495 -0.92 9.495 -9 10 C-3.375 2.25 -3.375 2.25 0 0 Z " fill="#303030" transform="translate(596,327)"/>
<path d="M0 0 C6.55497871 1.37197229 6.54711604 2.76596246 11 9 C5.06 8.67 -0.88 8.34 -7 8 C-7 7.67 -7 7.34 -7 7 C-3.535 6.505 -3.535 6.505 0 6 C-0.185625 5.38125 -0.37125 4.7625 -0.5625 4.125 C-1 2 -1 2 0 0 Z " fill="#2D2D2D" transform="translate(482,328)"/>
<path d="M0 0 C0.66 0.33 1.32 0.66 2 1 C1.67 3.31 1.34 5.62 1 8 C0.01 8 -0.98 8 -2 8 C-2.33 8.99 -2.66 9.98 -3 11 C-4.32 10.34 -5.64 9.68 -7 9 C-6.34 7.68 -5.68 6.36 -5 5 C-4.67 5.33 -4.34 5.66 -4 6 C-2.68 4.02 -1.36 2.04 0 0 Z " fill="#2C2C2C" transform="translate(401,757)"/>
<path d="M0 0 C1.32 0.66 2.64 1.32 4 2 C4 4.97 4 7.94 4 11 C1 10 1 10 -0.6875 6.9375 C-1.120625 5.968125 -1.55375 4.99875 -2 4 C-1.34 3.67 -0.68 3.34 0 3 C0 2.01 0 1.02 0 0 Z " fill="#333333" transform="translate(619,506)"/>
<path d="M0 0 C4 4.5 4 4.5 4 9 C3.01 9.33 2.02 9.66 1 10 C0.67 9.01 0.34 8.02 0 7 C0.33 6.34 0.66 5.68 1 5 C0.01 5.33 -0.98 5.66 -2 6 C-2.33 5.01 -2.66 4.02 -3 3 C-2.01 2.01 -1.02 1.02 0 0 Z " fill="#323232" transform="translate(820,822)"/>
<path d="M0 0 C2.31 1.98 4.62 3.96 7 6 C6.67 6.66 6.34 7.32 6 8 C3 7 3 7 2 6 C0.35 6.66 -1.3 7.32 -3 8 C-2.67 7.401875 -2.34 6.80375 -2 6.1875 C-0.79212012 3.94613529 -0.79212012 3.94613529 -1 1 C-0.67 0.67 -0.34 0.34 0 0 Z M-4 8 C-3.67 8.66 -3.34 9.32 -3 10 C-3.66 9.67 -4.32 9.34 -5 9 C-4.67 8.67 -4.34 8.34 -4 8 Z " fill="#323232" transform="translate(302,809)"/>
<path d="M0 0 C0.99 0.33 1.98 0.66 3 1 C2.67 3.64 2.34 6.28 2 9 C0.35 8.67 -1.3 8.34 -3 8 C-1.125 1.125 -1.125 1.125 0 0 Z " fill="#323232" transform="translate(212,751)"/>
<path d="M0 0 C1.0625 1.875 1.0625 1.875 2 4 C1.67 4.66 1.34 5.32 1 6 C0.401875 5.79375 -0.19625 5.5875 -0.8125 5.375 C-3.28450846 4.69328085 -3.28450846 4.69328085 -6 7 C-6.99 6.34 -7.98 5.68 -9 5 C-3.375 0 -3.375 0 0 0 Z " fill="#313131" transform="translate(500,505)"/>
<path d="M0 0 C0.33 0 0.66 0 1 0 C1 2.31 1 4.62 1 7 C2.32 7 3.64 7 5 7 C4.67 9.31 4.34 11.62 4 14 C3.01 14.33 2.02 14.66 1 15 C-0.32286246 10.03926578 -0.08893197 5.08888488 0 0 Z " fill="#434343" transform="translate(563,314)"/>
<path d="M0 0 C0.66 0.33 1.32 0.66 2 1 C2.625 3.5625 2.625 3.5625 3 6 C2.01 6.495 2.01 6.495 1 7 C0.34 6.67 -0.32 6.34 -1 6 C-0.67 7.98 -0.34 9.96 0 12 C-1.32 12.33 -2.64 12.66 -4 13 C-3.71517632 11.58194169 -3.42181856 10.16559621 -3.125 8.75 C-2.96257812 7.96109375 -2.80015625 7.1721875 -2.6328125 6.359375 C-2.00849925 4.03168856 -1.15161458 2.10968048 0 0 Z " fill="#3D3D3D" transform="translate(219,730)"/>
<path d="M0 0 C2 2 2 2 2 6 C2.99 6.66 3.98 7.32 5 8 C5 8.99 5 9.98 5 11 C1.54804233 9.5741914 -0.1014256 7.90253666 -2.25 4.875 C-3.03117188 3.78832031 -3.03117188 3.78832031 -3.828125 2.6796875 C-4.21484375 2.12539063 -4.6015625 1.57109375 -5 1 C-2.625 0.375 -2.625 0.375 0 0 Z " fill="#333333" transform="translate(613,498)"/>
<path d="M0 0 C0.66 0.33 1.32 0.66 2 1 C1.01 2.485 1.01 2.485 0 4 C-0.66 4 -1.32 4 -2 4 C-2.33 4.66 -2.66 5.32 -3 6 C-4.07149318 7.03493304 -5.1810991 8.03092 -6.3125 9 C-6.90675781 9.515625 -7.50101562 10.03125 -8.11328125 10.5625 C-9.99743138 11.99804295 -11.85200199 13.01372277 -14 14 C-9.72706118 8.76564995 -5.18419194 4.32893185 0 0 Z " fill="#EBEBEB" transform="translate(390,527)"/>
<path d="M0 0 C0.66 0.33 1.32 0.66 2 1 C2 2.32 2 3.64 2 5 C2.33 5.99 2.66 6.98 3 8 C2.01 8 1.02 8 0 8 C-0.33 8.99 -0.66 9.98 -1 11 C-1.33 10.34 -1.66 9.68 -2 9 C-2.66 8.67 -3.32 8.34 -4 8 C-2.68 5.36 -1.36 2.72 0 0 Z " fill="#313131" transform="translate(483,765)"/>
<path d="M0 0 C2.88437779 1.29299694 4.87219421 2.65941363 7 5 C6.34 5 5.68 5 5 5 C5 5.66 5 6.32 5 7 C3.35 7.33 1.7 7.66 0 8 C0 5.36 0 2.72 0 0 Z " fill="#323232" transform="translate(489,279)"/>
<path d="M0 0 C0.33 0 0.66 0 1 0 C1.144375 1.093125 1.28875 2.18625 1.4375 3.3125 C2.22587282 8.48072181 2.92355635 9.97554181 7 13 C7 13.66 7 14.32 7 15 C4.08482708 13.92598892 2.22189824 13.22189824 0 11 C-0.1953125 8.3984375 -0.1953125 8.3984375 -0.125 5.375 C-0.10695312 4.37210938 -0.08890625 3.36921875 -0.0703125 2.3359375 C-0.04710937 1.56507813 -0.02390625 0.79421875 0 0 Z " fill="#383838" transform="translate(189,818)"/>
<path d="M0 0 C1.9375 0.3125 1.9375 0.3125 4 1 C5 4 5 4 4.0625 6.1875 C3.5365625 7.0846875 3.5365625 7.0846875 3 8 C1.35 6.35 -0.3 4.7 -2 3 C-1.34 2.01 -0.68 1.02 0 0 Z " fill="#323232" transform="translate(698,529)"/>
<path d="M0 0 C1.98 0.66 3.96 1.32 6 2 C0 8 0 8 -3.5625 8.0625 C-4.696875 8.041875 -5.83125 8.02125 -7 8 C-7 7.67 -7 7.34 -7 7 C-3.535 6.505 -3.535 6.505 0 6 C-0.185625 5.38125 -0.37125 4.7625 -0.5625 4.125 C-1 2 -1 2 0 0 Z " fill="#424242" transform="translate(482,328)"/>
<path d="M0 0 C1.32 0 2.64 0 4 0 C6.3125 2.8125 6.3125 2.8125 8 6 C7.67 6.99 7.34 7.98 7 9 C4.36 6.69 1.72 4.38 -1 2 C-0.67 1.34 -0.34 0.68 0 0 Z " fill="#373737" transform="translate(494,306)"/>
<path d="M0 0 C4.95 0 9.9 0 15 0 C15 0.33 15 0.66 15 1 C13.8553125 1.1546875 13.8553125 1.1546875 12.6875 1.3125 C9.78105605 2.05600892 8.96433971 2.84858032 7 5 C6.34 5 5.68 5 5 5 C5 4.34 5 3.68 5 3 C4.01 3 3.02 3 2 3 C2 2.34 2 1.68 2 1 C1.34 0.67 0.68 0.34 0 0 Z " fill="#4C4C4C" transform="translate(422,258)"/>
<path d="M0 0 C0.99 1.32 1.98 2.64 3 4 C2.34 5.32 1.68 6.64 1 8 C0.34 8 -0.32 8 -1 8 C-1.66 7.34 -2.32 6.68 -3 6 C-3.66 5.67 -4.32 5.34 -5 5 C-3.35 3.35 -1.7 1.7 0 0 Z " fill="#303030" transform="translate(490,511)"/>
<path d="M0 0 C0 2 0 4 0 6 C-0.99 6 -1.98 6 -3 6 C-3 6.66 -3 7.32 -3 8 C-4.98 8.66 -6.96 9.32 -9 10 C-8.06409496 8.8944811 -7.12620142 7.79064547 -6.1875 6.6875 C-5.66542969 6.07261719 -5.14335938 5.45773437 -4.60546875 4.82421875 C-3.12827531 3.14575321 -1.59960869 1.56117966 0 0 Z " fill="#494949" transform="translate(688,312)"/>
<path d="M0 0 C3.875 1.75 3.875 1.75 5 4 C4.34 4 3.68 4 3 4 C3 4.99 3 5.98 3 7 C0 6 0 6 -1.1875 3.9375 C-1.5896875 2.9784375 -1.5896875 2.9784375 -2 2 C-1.34 1.34 -0.68 0.68 0 0 Z " fill="#343434" transform="translate(387,271)"/>
<path d="M0 0 C0 2.66666667 0 5.33333333 0 8 C-1.98 8.33 -3.96 8.66 -6 9 C-5.69381595 5.32579134 -5.24228216 4.21864487 -2.4375 1.6875 C-1.633125 1.130625 -0.82875 0.57375 0 0 Z " fill="#383838" transform="translate(720,773)"/>
<path d="M0 0 C0.66 0.33 1.32 0.66 2 1 C1.45773019 4.79588866 -0.20127563 6.47211993 -3 9 C-3 6.36 -3 3.72 -3 1 C-2.01 0.67 -1.02 0.34 0 0 Z " fill="#313131" transform="translate(445,760)"/>
<path d="M0 0 C0.66 0.99 1.32 1.98 2 3 C0.02 5.97 0.02 5.97 -2 9 C-4 7 -4 7 -4.125 4.375 C-4.08375 3.59125 -4.0425 2.8075 -4 2 C-3.01 2 -2.02 2 -1 2 C-0.67 1.34 -0.34 0.68 0 0 Z " fill="#333333" transform="translate(373,540)"/>
<path d="M0 0 C3.7952131 1.49097658 5.61042731 3.75700849 8 7 C6.02 7 4.04 7 2 7 C1.34 4.69 0.68 2.38 0 0 Z " fill="#353535" transform="translate(585,508)"/>
<path d="M0 0 C0.66 0.33 1.32 0.66 2 1 C1.75 2.875 1.75 2.875 1 5 C-1.95545121 7.11103658 -4.43855901 7.19785783 -8 7 C-5.4837822 4.39391727 -2.94865641 2.10618315 0 0 Z " fill="#383838" transform="translate(670,328)"/>
<path d="M0 0 C0.66 0 1.32 0 2 0 C1.67 0.721875 1.34 1.44375 1 2.1875 C-0.00603529 5.01697427 -0.16977402 7.02895466 0 10 C-1.98 10.99 -1.98 10.99 -4 12 C-3.45660208 7.43545749 -2.20536179 4.0271824 0 0 Z " fill="#353535" transform="translate(533,340)"/>
<path d="M0 0 C0.66 0.99 1.32 1.98 2 3 C1.67 3.33 1.34 3.66 1 4 C0.855625 5.155 0.71125 6.31 0.5625 7.5 C0.376875 8.655 0.19125 9.81 0 11 C-0.99 11.495 -0.99 11.495 -2 12 C-2 11.34 -2 10.68 -2 10 C-2.66 9.67 -3.32 9.34 -4 9 C-3.34 8.34 -2.68 7.68 -2 7 C-1.62690101 5.34178227 -1.29299023 3.67422986 -1 2 C-0.67 1.34 -0.34 0.68 0 0 Z " fill="#252525" transform="translate(534,342)"/>
<path d="M0 0 C1.34432121 1.94926576 1.85000283 3.49251641 2.25 5.8125 C-1.68673644 4.50025452 -3.97719294 2.89339673 -6.75 -0.1875 C-2.24851632 -1.52577893 -2.24851632 -1.52577893 0 0 Z " fill="#3A3A3A" transform="translate(432.75,314.1875)"/>
<path d="M0 0 C0.33 0.99 0.66 1.98 1 3 C-2.19190225 6.19190225 -5.06638173 8.72264206 -9 11 C-7.59155282 7.78475695 -5.89655214 5.67816132 -3.375 3.25 C-2.74335937 2.63640625 -2.11171875 2.0228125 -1.4609375 1.390625 C-0.73777344 0.70226562 -0.73777344 0.70226562 0 0 Z " fill="#DDDDDD" transform="translate(569,268)"/>
<path d="M0 0 C0.5 2 0.5 2 1 4 C1.226875 4.680625 1.45375 5.36125 1.6875 6.0625 C2 8 2 8 0 11 C-0.66 10.34 -1.32 9.68 -2 9 C-2 7.68 -2 6.36 -2 5 C-2.66 4.34 -3.32 3.68 -4 3 C-3.01 3 -2.02 3 -1 3 C-0.67 2.01 -0.34 1.02 0 0 Z " fill="#313131" transform="translate(548,832)"/>
<path d="M0 0 C0 0.66 0 1.32 0 2 C-0.66 2 -1.32 2 -2 2 C-2.103125 2.7425 -2.20625 3.485 -2.3125 4.25 C-3.04253504 7.17014018 -4.06789398 8.73187554 -6 11 C-6.36476427 4.67741935 -6.36476427 4.67741935 -4.6875 1.5625 C-3 0 -3 0 0 0 Z " fill="#464646" transform="translate(759,788)"/>
<path d="M0 0 C0.33 0 0.66 0 1 0 C1.33 1.65 1.66 3.3 2 5 C3.98 5.66 5.96 6.32 8 7 C8 7.66 8 8.32 8 9 C5.69 8.67 3.38 8.34 1 8 C1 7.34 1 6.68 1 6 C0.34 5.67 -0.32 5.34 -1 5 C-0.67 3.35 -0.34 1.7 0 0 Z " fill="#363636" transform="translate(490,763)"/>
<path d="M0 0 C2.62187494 1.04874998 3.79371361 1.64931313 5.25 4.125 C5.4975 4.74375 5.745 5.3625 6 6 C5.34 6.66 4.68 7.32 4 8 C4 7.34 4 6.68 4 6 C2.68 5.67 1.36 5.34 0 5 C0 3.35 0 1.7 0 0 Z " fill="#3B3B3B" transform="translate(685,553)"/>
<path d="M0 0 C0.66 0.33 1.32 0.66 2 1 C1.75 3.375 1.75 3.375 1 6 C-1.0625 7.3125 -1.0625 7.3125 -3 8 C-3.36923077 3.44615385 -3.36923077 3.44615385 -1.5 1.1875 C-1.005 0.795625 -0.51 0.40375 0 0 Z " fill="#2E2E2E" transform="translate(487,481)"/>
<path d="M0 0 C1.32 0 2.64 0 4 0 C4.33 0.99 4.66 1.98 5 3 C3.35 4.32 1.7 5.64 0 7 C-0.38133299 5.0085944 -0.71325582 3.00720923 -1 1 C-0.67 0.67 -0.34 0.34 0 0 Z " fill="#363636" transform="translate(571,315)"/>
<path d="M0 0 C2.50298434 2.93828597 3.46930939 5.17902761 4 9 C2 8 0 7 -2 6 C-1.34 4.02 -0.68 2.04 0 0 Z " fill="#424242" transform="translate(692,561)"/>
<path d="M0 0 C0.75 1.6875 0.75 1.6875 1 4 C-0.9375 6.75 -0.9375 6.75 -3 9 C-3.33 7.02 -3.66 5.04 -4 3 C-2.68 2.01 -1.36 1.02 0 0 Z " fill="#303030" transform="translate(462,507)"/>
<path d="M0 0 C0.66 0.33 1.32 0.66 2 1 C1.01 2.485 1.01 2.485 0 4 C0.66 4.66 1.32 5.32 2 6 C1.01 6.33 0.02 6.66 -1 7 C-1.99 6.34 -2.98 5.68 -4 5 C-3.6875 3.0625 -3.6875 3.0625 -3 1 C-2.01 0.67 -1.02 0.34 0 0 Z " fill="#242424" transform="translate(590,281)"/>
<path d="M0 0 C0.99 1.32 1.98 2.64 3 4 C1 6 1 6 -2 7 C-2.66 6.34 -3.32 5.68 -4 5 C-1.125 1.125 -1.125 1.125 0 0 Z " fill="#343434" transform="translate(365,281)"/>
<path d="M0 0 C0 2.64 0 5.28 0 8 C-0.99 8 -1.98 8 -3 8 C-3.6875 5.6875 -3.6875 5.6875 -4 3 C-1.72413793 0 -1.72413793 0 0 0 Z " fill="#262626" transform="translate(884,833)"/>
<path d="M0 0 C0.33 0.99 0.66 1.98 1 3 C0.67 3.66 0.34 4.32 0 5 C0.66 5 1.32 5 2 5 C1.67 5.99 1.34 6.98 1 8 C-0.65 7.67 -2.3 7.34 -4 7 C-2.68 4.69 -1.36 2.38 0 0 Z " fill="#3A3A3A" transform="translate(482,519)"/>
<path d="M0 0 C0.99 0.33 1.98 0.66 3 1 C2.01 2.485 2.01 2.485 1 4 C0.67 4.99 0.34 5.98 0 7 C-0.99 6.67 -1.98 6.34 -3 6 C-2.625 3.5625 -2.625 3.5625 -2 1 C-1.34 0.67 -0.68 0.34 0 0 Z " fill="#E2E2E2" transform="translate(230,835)"/>
<path d="M0 0 C3.875 4.75 3.875 4.75 5 7 C3.35 7.33 1.7 7.66 0 8 C-0.79953138 4.71303767 -1.09658936 3.28976808 0 0 Z " fill="#373737" transform="translate(558,823)"/>
<path d="M0 0 C0.99 0.33 1.98 0.66 3 1 C2.67 2.65 2.34 4.3 2 6 C1.01 6 0.02 6 -1 6 C-1.042721 4.33388095 -1.04063832 2.66617115 -1 1 C-0.67 0.67 -0.34 0.34 0 0 Z " fill="#2E2E2E" transform="translate(563,761)"/>
<path d="M0 0 C2 2 2 2 2 4 C1.67 4.99 1.34 5.98 1 7 C1 6.34 1 5.68 1 5 C-0.32 5.33 -1.64 5.66 -3 6 C-3.66 4.35 -4.32 2.7 -5 1 C-3.68 1 -2.36 1 -1 1 C-0.67 0.67 -0.34 0.34 0 0 Z " fill="#212121" transform="translate(534,704)"/>
<path d="M0 0 C0.66 1.32 1.32 2.64 2 4 C-0.90600261 5.25664978 -2.79604584 6 -6 6 C-4.02 4.02 -2.04 2.04 0 0 Z " fill="#3C3C3C" transform="translate(376,882)"/>
<path d="M0 0 C0.33 0 0.66 0 1 0 C1 2.64 1 5.28 1 8 C0.01 8 -0.98 8 -2 8 C-2.33 6.35 -2.66 4.7 -3 3 C-2.34 3 -1.68 3 -1 3 C-0.67 2.01 -0.34 1.02 0 0 Z " fill="#525252" transform="translate(292,782)"/>
<path d="M0 0 C0.66 0.33 1.32 0.66 2 1 C2 1.99 2 2.98 2 4 C2.66 4.33 3.32 4.66 4 5 C1 6 1 6 -2 5 C-1.125 1.125 -1.125 1.125 0 0 Z " fill="#313131" transform="translate(579,474)"/>
<path d="M0 0 C2.375 -0.1875 2.375 -0.1875 5 0 C5.66 0.99 6.32 1.98 7 3 C4.69 3.33 2.38 3.66 0 4 C0 2.68 0 1.36 0 0 Z " fill="#2F2F2F" transform="translate(398,323)"/>
<path d="M0 0 C0.66 0.66 1.32 1.32 2 2 C1.75 4.5625 1.75 4.5625 1 7 C0.01 7.495 0.01 7.495 -1 8 C-1.625 5.125 -1.625 5.125 -2 2 C-1.34 1.34 -0.68 0.68 0 0 Z " fill="#2B2B2B" transform="translate(569,317)"/>
<path d="M0 0 C2.31 0.33 4.62 0.66 7 1 C7 2.65 7 4.3 7 6 C5.83054208 5.19152271 4.66449539 4.37810888 3.5 3.5625 C2.8503125 3.11003906 2.200625 2.65757812 1.53125 2.19140625 C1.0259375 1.79824219 0.520625 1.40507812 0 1 C0 0.67 0 0.34 0 0 Z " fill="#3D3D3D" transform="translate(512,270)"/>
<path d="M0 0 C0.33 0.99 0.66 1.98 1 3 C1.66 3.33 2.32 3.66 3 4 C2.01 5.485 2.01 5.485 1 7 C-0.65 5.35 -2.3 3.7 -4 2 C-2.68 1.34 -1.36 0.68 0 0 Z " fill="#393939" transform="translate(503,257)"/>
<path d="M0 0 C0.66 0.99 1.32 1.98 2 3 C0.125 4.0625 0.125 4.0625 -2 5 C-2.66 4.67 -3.32 4.34 -4 4 C-4 3.34 -4 2.68 -4 2 C-2.68 1.34 -1.36 0.68 0 0 Z " fill="#2F2F2F" transform="translate(853,783)"/>
<path d="M0 0 C0.66 0.66 1.32 1.32 2 2 C-0.31 3.65 -2.62 5.3 -5 7 C-5.33 6.34 -5.66 5.68 -6 5 C-5.67 4.34 -5.34 3.68 -5 3 C-4.01 3 -3.02 3 -2 3 C-2 2.34 -2 1.68 -2 1 C-1.34 0.67 -0.68 0.34 0 0 Z " fill="#323232" transform="translate(574,755)"/>
<path d="M0 0 C1.32 0.66 2.64 1.32 4 2 C4 2.66 4 3.32 4 4 C1.69 4 -0.62 4 -3 4 C-1 1 -1 1 0 0 Z " fill="#363636" transform="translate(599,332)"/>
<path d="M0 0 C2.35953094 2.35953094 2.49141413 3.77895617 3 7 C2.01 7 1.02 7 0 7 C-0.66 5.02 -1.32 3.04 -2 1 C-1.34 0.67 -0.68 0.34 0 0 Z " fill="#343434" transform="translate(640,289)"/>
<path d="M0 0 C0.66 0.66 1.32 1.32 2 2 C1.01 3.98 0.02 5.96 -1 8 C-3 5 -3 5 -3 2 C-2.01 2 -1.02 2 0 2 C0 1.34 0 0.68 0 0 Z " fill="#3B3B3B" transform="translate(559,770)"/>
<path d="M0 0 C0.66 0.33 1.32 0.66 2 1 C1.67 3.31 1.34 5.62 1 8 C-0.32 7.34 -1.64 6.68 -3 6 C-2 4 -1 2 0 0 Z " fill="#333333" transform="translate(401,757)"/>
<path d="M0 0 C0.66 0.33 1.32 0.66 2 1 C1.67 1.66 1.34 2.32 1 3 C0.34 3 -0.32 3 -1 3 C-1.33 4.32 -1.66 5.64 -2 7 C-2 6.34 -2 5.68 -2 5 C-3.32 4.67 -4.64 4.34 -6 4 C-4.02 2.68 -2.04 1.36 0 0 Z " fill="#424242" transform="translate(408,540)"/>
<path d="M0 0 C0.66 0.99 1.32 1.98 2 3 C0.35 4.32 -1.3 5.64 -3 7 C-3.33 5.68 -3.66 4.36 -4 3 C-2.68 2.67 -1.36 2.34 0 2 C0 1.34 0 0.68 0 0 Z " fill="#353535" transform="translate(380,532)"/>
<path d="M0 0 C0.66 0.33 1.32 0.66 2 1 C1.375 2.9375 1.375 2.9375 0 5 C-3.125 5.75 -3.125 5.75 -6 6 C-4 4 -2 2 0 0 Z " fill="#3E3E3E" transform="translate(605,319)"/>
<path d="M0 0 C0 1.32 0 2.64 0 4 C-0.99 4.33 -1.98 4.66 -3 5 C-3.99 4.34 -4.98 3.68 -6 3 C-6 2.34 -6 1.68 -6 1 C-3 0 -3 0 0 0 Z " fill="#2F2F2F" transform="translate(295,858)"/>
<path d="M0 0 C0.66 0.33 1.32 0.66 2 1 C1.67 2.32 1.34 3.64 1 5 C-0.65 4.67 -2.3 4.34 -4 4 C-2.68 2.68 -1.36 1.36 0 0 Z " fill="#373737" transform="translate(880,770)"/>
<path d="M0 0 C0.66 0 1.32 0 2 0 C1.67 1.32 1.34 2.64 1 4 C0.67 2.68 0.34 1.36 0 0 Z M-3 2 C-1.5 3.375 -1.5 3.375 0 5 C0 5.66 0 6.32 0 7 C-1.32 6.34 -2.64 5.68 -4 5 C-3.67 4.01 -3.34 3.02 -3 2 Z " fill="#313131" transform="translate(725,768)"/>
<path d="M0 0 C1.2077558 3.62326739 0.54311128 4.64146369 -1 8 C-1.66 7.34 -2.32 6.68 -3 6 C-2.75 3.4375 -2.75 3.4375 -2 1 C-1.34 0.67 -0.68 0.34 0 0 Z " fill="#2E2E2E" transform="translate(366,553)"/>
<path d="M0 0 C0.66 0 1.32 0 2 0 C2.33 1.32 2.66 2.64 3 4 C1.68 4.33 0.36 4.66 -1 5 C-1.33 4.01 -1.66 3.02 -2 2 C-1.34 1.34 -0.68 0.68 0 0 Z M3 1 C5 2 5 2 5 2 Z " fill="#242424" transform="translate(479,330)"/>
<path d="M0 0 C0.66 0.33 1.32 0.66 2 1 C1.67 2.32 1.34 3.64 1 5 C-0.32 4.34 -1.64 3.68 -3 3 C-2.34 3 -1.68 3 -1 3 C-0.67 2.01 -0.34 1.02 0 0 Z M-3 5 C-2.01 5.495 -2.01 5.495 -1 6 C-1.99 6.495 -1.99 6.495 -3 7 C-3 6.34 -3 5.68 -3 5 Z " fill="#232323" transform="translate(606,321)"/>
<path d="M0 0 C2.03144641 0.93446535 4.03533587 1.93224776 6 3 C6 3.66 6 4.32 6 5 C0.25 3.25 0.25 3.25 -2 1 C-1.34 0.67 -0.68 0.34 0 0 Z " fill="#454545" transform="translate(442,322)"/>
<path d="M0 0 C-1.65 1.32 -3.3 2.64 -5 4 C-5.66 3.34 -6.32 2.68 -7 2 C-5.26578631 -1.46842738 -3.40984787 -1.13661596 0 0 Z " fill="#393939" transform="translate(376,254)"/>
</svg>
